<?xml version="1.0" standalone="no"?><!DOCTYPE svg PUBLIC "-//W3C//DTD SVG 1.1//EN" "http://www.w3.org/Graphics/SVG/1.1/DTD/svg11.dtd"><svg height="1024" node-id="1" sillyvg="true" template-height="1024" template-width="1024" version="1.1" viewBox="0 0 1024 1024" width="1024" xmlns="http://www.w3.org/2000/svg" xmlns:xlink="http://www.w3.org/1999/xlink"><defs node-id="28"><linearGradient gradientUnits="objectBoundingBox" id="paint0_linear_1_132" node-id="19" spreadMethod="pad" x1="521.492" x2="521.492" y1="198.736" y2="625.71"><stop offset="0" stop-color="#cacaca"></stop><stop offset="1" stop-color="#a3a3a3"></stop></linearGradient><linearGradient gradientUnits="objectBoundingBox" id="paint1_linear_1_132" node-id="22" spreadMethod="pad" x1="519.762" x2="519.762" y1="98.8091" y2="574.234"><stop offset="0" stop-color="#ffffff"></stop><stop offset="1" stop-color="#f7f7f7"></stop></linearGradient><clipPath id="clip0_1_132" node-id="25"><path d="M 0.00 0.00 L 1024.00 0.00 L 1024.00 1024.00 L 0.00 1024.00 Z" fill="#000000" fill-rule="nonzero" node-id="43" stroke="none" target-height="1024" target-width="1024" target-x="0" target-y="0"></path></clipPath></defs><g clip-path="url(#clip0_1_132)" id="sillyvg_g_0" node-id="47"><path d="M 404.07 966.31 L 404.07 970.55 C 400.69 970.84 397.16 971.20 393.49 971.56 L 393.49 977.11 L 388.74 977.11 L 388.74 971.92 C 383.98 972.21 378.94 972.57 373.76 972.86 L 373.11 968.25 C 378.58 967.96 383.84 967.75 388.74 967.46 L 388.74 961.48 L 375.34 961.48 L 374.19 957.38 C 376.21 955.07 378.15 952.34 379.88 949.10 L 372.18 949.10 L 372.18 944.49 L 382.18 944.49 C 382.83 942.91 383.48 941.32 384.06 939.74 L 389.24 940.60 C 388.74 941.90 388.23 943.19 387.66 944.49 L 405.22 944.49 L 405.22 949.10 L 385.50 949.10 C 383.91 952.12 382.18 954.86 380.38 957.23 L 388.74 957.23 L 388.74 952.48 L 393.49 952.48 L 393.49 957.23 L 404.72 957.23 L 404.72 961.48 L 393.49 961.48 L 393.49 967.17 C 397.23 966.88 400.76 966.59 404.07 966.31 Z M 414.15 961.55 C 413.36 967.60 411.42 972.86 408.32 977.32 L 404.72 973.58 C 407.89 968.90 409.62 963.35 409.76 956.87 L 409.76 945.57 C 418.69 944.71 425.74 943.12 430.78 940.82 L 434.10 944.71 C 428.77 947.01 422.29 948.67 414.51 949.53 L 414.51 957.02 L 436.11 957.02 L 436.11 961.55 L 428.48 961.55 L 428.48 977.18 L 423.51 977.18 L 423.51 961.55 L 414.15 961.55 Z M 428.05 979.27 L 428.05 1006.34 L 422.72 1006.34 L 422.72 1003.53 L 386.14 1003.53 L 386.14 1006.34 L 380.82 1006.34 L 380.82 979.27 L 428.05 979.27 Z M 386.14 999.07 L 422.72 999.07 L 422.72 993.45 L 386.14 993.45 L 386.14 999.07 Z M 386.14 989.27 L 422.72 989.27 L 422.72 983.66 L 386.14 983.66 L 386.14 989.27 Z M 449.58 944.20 L 501.27 944.20 L 501.27 949.24 L 475.50 949.24 L 475.50 954.07 C 475.35 958.53 475.06 962.78 474.56 966.67 L 507.10 966.67 L 507.10 971.63 L 484.78 971.63 L 484.78 996.76 C 484.78 999.07 485.94 1000.29 488.24 1000.29 L 497.38 1000.29 C 499.11 1000.29 500.41 999.79 501.20 998.85 C 502.21 997.70 502.86 994.39 503.22 988.77 L 508.11 990.35 C 507.54 997.41 506.46 1001.66 504.87 1003.24 C 503.50 1004.54 501.34 1005.19 498.32 1005.19 L 486.66 1005.19 C 481.90 1005.19 479.60 1002.74 479.60 997.84 L 479.60 971.63 L 473.77 971.63 C 472.62 977.90 470.82 983.30 468.37 987.91 C 463.90 995.68 456.70 1001.80 446.70 1006.12 L 443.82 1001.51 C 453.75 997.05 460.59 991.22 464.48 983.87 C 466.21 980.27 467.50 976.17 468.44 971.63 L 444.75 971.63 L 444.75 966.67 L 469.30 966.67 C 469.88 962.78 470.17 958.53 470.24 954.07 L 470.24 949.24 L 449.58 949.24 L 449.58 944.20 Z M 516.61 952.48 L 546.42 952.48 C 544.47 948.67 542.10 945.07 539.22 941.68 L 544.40 939.81 C 547.14 943.27 549.58 947.51 551.89 952.48 L 579.39 952.48 L 579.39 957.67 L 568.16 957.67 C 564.63 969.04 559.30 978.62 552.25 986.25 C 559.88 992.73 569.46 998.06 580.98 1002.31 L 578.17 1006.63 C 566.22 1002.16 556.42 996.62 548.65 989.92 C 540.44 997.48 530.22 1003.03 517.98 1006.55 L 515.24 1002.02 C 527.34 998.78 537.27 993.67 545.05 986.61 C 536.70 978.40 530.94 968.75 527.70 957.67 L 516.61 957.67 L 516.61 952.48 Z M 532.81 957.67 C 535.90 967.39 541.16 975.81 548.65 983.01 C 555.06 976.03 559.74 967.60 562.76 957.67 L 532.81 957.67 Z M 602.86 939.88 L 607.76 942.11 C 605.89 947.80 603.51 953.20 600.63 958.31 L 600.63 1006.41 L 595.52 1006.41 L 595.52 966.23 C 593.22 969.40 590.70 972.43 587.96 975.31 L 586.30 969.76 C 593.94 961.12 599.41 951.11 602.86 939.88 Z M 614.96 944.63 L 620.07 945.28 C 619.50 948.88 618.70 952.34 617.70 955.51 L 628.28 955.51 L 628.28 940.53 L 633.46 940.53 L 633.46 955.51 L 650.02 955.51 L 650.02 960.55 L 633.46 960.55 L 633.46 977.90 L 652.69 977.90 L 652.69 982.87 L 633.46 982.87 L 633.46 1006.05 L 628.28 1006.05 L 628.28 982.87 L 607.11 982.87 L 607.11 977.90 L 628.28 977.90 L 628.28 960.55 L 616.04 960.55 C 614.24 965.30 612.01 969.55 609.34 973.29 L 606.03 968.97 C 610.42 962.35 613.38 954.21 614.96 944.63 Z" fill="#666666" fill-rule="nonzero" node-id="49" stroke="none" target-height="66.89203" target-width="280.512" target-x="372.176" target-y="939.738"></path><path d="M 542.09 0.00 L 558.98 0.33 L 575.70 1.49 L 592.09 3.31 L 608.15 5.79 L 624.05 8.94 L 639.78 12.75 L 655.17 17.22 L 670.41 22.35 L 685.14 28.15 L 699.55 34.44 L 717.43 43.21 L 734.48 52.82 L 751.04 63.25 L 766.93 74.51 L 737.79 74.84 L 734.32 75.83 L 730.84 77.49 L 725.38 82.12 L 721.57 88.58 L 720.58 92.06 L 720.24 97.69 L 720.58 101.66 L 721.57 105.14 L 723.22 108.61 L 727.86 114.08 L 734.32 117.89 L 737.79 118.88 L 741.77 119.21 L 816.60 119.21 L 827.03 130.97 L 836.80 143.05 L 846.24 155.47 L 855.02 168.55 L 890.61 168.55 L 894.75 168.88 L 898.73 169.87 L 902.20 171.69 L 905.51 174.01 L 908.33 176.66 L 910.65 179.97 L 912.30 183.62 L 913.30 187.42 L 913.79 191.73 L 912.80 199.68 L 911.64 202.82 L 908.99 206.96 L 905.68 210.60 L 901.54 213.42 L 897.07 215.24 L 864.29 215.24 L 859.49 215.74 L 855.02 216.89 L 850.88 218.88 L 847.23 221.53 L 844.09 224.68 L 841.44 228.32 L 839.45 232.46 L 838.29 236.93 L 837.80 250.01 L 838.29 254.81 L 839.45 259.28 L 841.44 263.42 L 844.09 267.06 L 847.23 270.21 L 850.88 272.86 L 855.02 274.84 L 859.49 276.00 L 864.29 276.50 L 976.71 276.50 L 983.83 279.48 L 986.97 281.63 L 992.11 287.26 L 995.58 294.21 L 996.74 302.16 L 996.25 308.45 L 995.09 312.93 L 993.10 317.06 L 990.45 320.71 L 987.30 323.85 L 983.66 326.50 L 979.52 328.49 L 975.05 329.65 L 970.25 330.14 L 911.97 330.14 L 913.30 347.86 L 913.79 365.91 L 913.30 383.29 L 912.14 400.35 L 910.15 417.07 L 907.50 433.62 L 903.86 449.85 L 899.72 465.91 L 894.75 481.64 L 889.12 497.04 L 882.83 512.10 L 876.04 526.84 L 868.43 541.24 L 860.15 555.32 L 851.37 568.89 L 842.10 581.97 L 832.17 594.72 L 821.57 607.14 L 810.64 618.89 L 799.05 630.15 L 787.13 641.08 L 774.55 651.35 L 761.63 661.28 L 748.22 670.39 L 734.48 679.00 L 720.24 687.11 L 705.51 694.56 L 690.61 701.51 L 675.21 707.64 L 659.64 713.10 L 643.59 717.90 L 627.19 722.21 L 610.80 725.52 L 594.08 728.34 L 577.03 730.16 L 559.64 731.32 L 542.09 731.81 L 525.53 731.48 L 509.31 730.49 L 493.42 728.67 L 477.69 726.35 L 462.29 723.37 L 443.08 718.73 L 424.37 713.10 L 406.33 706.65 L 388.61 699.20 L 371.23 690.92 L 354.34 681.81 L 338.28 671.88 L 322.55 661.28 L 307.48 649.69 L 293.08 637.61 L 279.17 624.69 L 266.09 611.11 L 253.67 596.88 L 242.08 582.14 L 231.15 566.74 L 221.06 550.68 L 211.78 534.12 L 203.50 517.07 L 195.89 499.69 L 189.27 481.64 L 172.54 481.31 L 170.22 480.31 L 168.07 478.66 L 166.58 476.51 L 165.59 474.19 L 165.09 471.37 L 165.59 468.39 L 166.91 465.58 L 168.90 463.43 L 171.55 461.94 L 192.74 461.61 L 196.22 460.61 L 199.70 458.96 L 205.16 454.32 L 208.97 447.86 L 209.96 444.39 L 210.29 440.41 L 209.96 434.78 L 208.97 431.31 L 207.31 427.83 L 202.68 422.37 L 199.70 420.21 L 196.22 418.56 L 192.74 417.56 L 173.87 416.90 L 137.28 416.90 L 131.32 415.91 L 128.67 414.58 L 124.20 410.94 L 121.22 405.97 L 120.39 402.99 L 120.39 396.87 L 122.54 391.40 L 126.18 386.93 L 131.32 383.95 L 137.28 382.96 L 170.72 382.96 L 170.39 365.91 L 170.72 349.68 L 171.72 333.62 L 173.54 317.89 L 175.85 302.49 L 179.00 287.26 L 183.64 268.22 L 189.43 249.84 L 196.05 231.96 L 203.50 214.41 L 144.06 214.41 L 137.77 213.91 L 131.65 212.76 L 126.02 210.77 L 120.72 208.12 L 115.75 204.81 L 111.28 200.84 L 107.31 196.36 L 104.00 191.56 L 101.35 186.10 L 99.36 180.47 L 98.20 174.51 L 97.71 168.05 L 98.04 159.28 L 99.20 153.48 L 101.18 148.02 L 103.67 142.72 L 106.81 137.92 L 110.45 133.61 L 114.59 129.64 L 119.23 126.33 L 124.36 123.51 L 129.66 121.36 L 135.29 120.04 L 141.42 119.21 L 351.03 119.21 L 356.82 118.22 L 361.79 115.24 L 365.26 110.93 L 366.59 108.45 L 367.58 102.65 L 367.25 99.67 L 366.59 96.86 L 363.61 91.89 L 359.30 88.41 L 356.82 87.09 L 351.03 86.10 L 302.51 86.10 L 303.67 85.10 L 279.50 85.10 L 273.87 84.61 L 268.57 83.12 L 263.77 80.80 L 259.30 77.65 L 255.49 74.01 L 252.35 69.54 L 250.03 64.57 L 248.71 59.44 L 248.04 53.64 L 248.71 46.19 L 250.03 40.90 L 252.35 35.93 L 255.49 31.62 L 259.30 27.82 L 263.77 24.67 L 268.57 22.35 L 273.87 21.03 L 279.50 20.36 L 419.24 20.36 L 448.55 11.59 L 479.01 5.30 L 509.97 1.32 L 542.09 0.00 Z" fill="#ebebeb" fill-rule="evenodd" node-id="51" stroke="none" target-height="731.813" target-width="899.0367" target-x="97.7063" target-y="0"></path><path d="M 492.25 550.71 L 580.49 552.25 L 662.80 556.86 L 736.99 564.10 L 772.77 568.71 L 804.60 573.76 L 833.13 579.25 L 853.98 579.91 L 873.30 581.44 L 891.52 583.86 L 909.52 587.37 L 925.32 591.32 L 939.15 595.93 L 949.47 600.32 L 958.03 604.71 L 971.20 613.71 L 976.47 619.20 L 979.98 624.47 L 982.17 629.73 L 982.83 635.22 L 982.39 639.61 L 978.66 648.17 L 975.37 652.56 L 970.10 657.61 L 963.30 662.66 L 954.52 667.71 L 934.76 676.05 L 922.69 679.78 L 897.01 685.49 L 882.08 687.90 L 860.57 693.83 L 835.11 699.53 L 835.77 706.56 L 835.11 712.70 L 833.79 718.85 L 831.16 724.78 L 827.42 730.92 L 822.60 737.07 L 815.79 743.65 L 807.67 750.46 L 797.57 757.04 L 773.87 769.12 L 745.99 779.65 L 729.75 784.48 L 708.02 789.75 L 684.31 794.36 L 658.63 798.31 L 632.73 800.95 L 605.51 802.48 L 576.75 803.14 L 550.85 802.70 L 526.27 801.38 L 502.78 799.19 L 479.08 796.12 L 457.34 792.38 L 436.93 787.77 L 416.74 782.51 L 398.74 776.80 L 382.71 770.65 L 370.86 765.17 L 351.11 753.97 L 335.52 741.68 L 329.38 735.31 L 324.55 728.73 L 321.25 722.36 L 286.79 719.29 L 224.67 712.27 L 168.04 703.27 L 119.75 692.73 L 99.12 687.02 L 81.78 681.10 L 57.63 671.00 L 48.85 666.17 L 36.56 656.73 L 32.61 652.12 L 29.98 647.95 L 28.44 643.78 L 28.00 639.61 L 28.66 635.22 L 30.41 630.61 L 33.49 626.00 L 38.10 621.17 L 44.68 615.90 L 52.80 610.86 L 63.12 605.59 L 75.85 600.32 L 91.44 594.83 L 111.85 588.69 L 135.78 582.54 L 163.87 576.83 L 223.36 567.18 L 258.04 562.79 L 329.38 556.42 L 408.18 552.25 L 492.25 550.71 Z" fill="#c5c5c5" fill-rule="evenodd" node-id="53" stroke="none" target-height="252.427" target-width="954.83203" target-x="28" target-y="550.713"></path><path d="M 335.26 201.25 L 707.73 201.25 C 729.75 201.25 747.61 219.10 747.61 241.13 L 747.61 583.32 C 747.61 605.34 729.75 623.20 707.73 623.20 L 335.26 623.20 C 313.23 623.20 295.37 605.34 295.37 583.32 L 295.37 241.13 C 295.37 219.10 313.23 201.25 335.26 201.25 Z" fill="url(#paint0_linear_1_132)" fill-rule="nonzero" node-id="55" stroke="#a3a3a3" stroke-linecap="butt" stroke-width="5.01963" target-height="421.954" target-width="452.23593" target-x="295.374" target-y="201.246"></path><path d="M 381.63 101.32 L 580.31 101.32 C 584.03 101.32 587.59 102.85 590.15 105.55 L 667.73 187.44 C 670.12 189.96 671.44 193.29 671.44 196.76 L 671.44 558.17 C 671.44 565.66 665.38 571.72 657.89 571.72 L 381.63 571.72 C 374.15 571.72 368.08 565.66 368.08 558.17 L 368.08 114.87 C 368.08 107.39 374.15 101.32 381.63 101.32 Z" fill="url(#paint1_linear_1_132)" fill-rule="nonzero" node-id="57" stroke="#a3a3a3" stroke-linecap="butt" stroke-width="5.01963" target-height="470.405" target-width="303.36398" target-x="368.08" target-y="101.31901"></path><path d="M 669.13 190.36 L 587.22 103.63 L 587.22 174.30 C 587.22 188.43 595.25 190.36 600.07 190.36 L 669.13 190.36 Z" fill="#cccccc" fill-rule="nonzero" node-id="59" stroke="#a3a3a3" stroke-linecap="butt" stroke-width="5.01963" target-height="86.732994" target-width="81.914" target-x="587.218" target-y="103.628"></path><path d="M 389.66 136.65 L 556.70 136.65 C 559.75 136.65 562.22 139.12 562.22 142.17 L 562.22 142.17 C 562.22 145.22 559.75 147.69 556.70 147.69 L 389.66 147.69 C 386.61 147.69 384.14 145.22 384.14 142.17 L 384.14 142.17 C 384.14 139.12 386.61 136.65 389.66 136.65 Z" fill="#cccccc" fill-rule="nonzero" node-id="61" stroke="#a3a3a3" stroke-linecap="butt" stroke-width="5.01963" target-height="11.042007" target-width="178.08298" target-x="384.139" target-y="136.652"></path><path d="M 418.58 239.45 L 646.66 239.45 C 649.71 239.45 652.18 241.92 652.18 244.97 L 652.18 244.97 C 652.18 248.02 649.71 250.49 646.66 250.49 L 418.58 250.49 C 415.53 250.49 413.06 248.02 413.06 244.97 L 413.06 244.97 C 413.06 241.92 415.53 239.45 418.58 239.45 Z" fill="#cccccc" fill-rule="nonzero" node-id="63" stroke="#a3a3a3" stroke-linecap="butt" stroke-width="5.01963" target-height="11.041992" target-width="239.11697" target-x="413.06003" target-y="239.452"></path><path d="M 389.66 168.78 L 450.69 168.78 C 453.74 168.78 456.22 171.25 456.22 174.30 L 456.22 174.30 C 456.22 177.35 453.74 179.82 450.69 179.82 L 389.66 179.82 C 386.61 179.82 384.14 177.35 384.14 174.30 L 384.14 174.30 C 384.14 171.25 386.61 168.78 389.66 168.78 Z" fill="#cccccc" fill-rule="nonzero" node-id="65" stroke="#a3a3a3" stroke-linecap="butt" stroke-width="5.01963" target-height="11.041992" target-width="72.0762" target-x="384.139" target-y="168.78"></path><path d="M 479.62 271.57 L 646.66 271.57 C 649.71 271.57 652.18 274.04 652.18 277.09 L 652.18 277.09 C 652.18 280.14 649.71 282.61 646.66 282.61 L 479.62 282.61 C 476.57 282.61 474.10 280.14 474.10 277.09 L 474.10 277.09 C 474.10 274.04 476.57 271.57 479.62 271.57 Z" fill="#cccccc" fill-rule="nonzero" node-id="67" stroke="#a3a3a3" stroke-linecap="butt" stroke-width="5.01963" target-height="11.041992" target-width="178.08298" target-x="474.1" target-y="271.57"></path><path d="M 741.05 259.32 C 779.81 259.32 791.52 286.37 792.52 299.90 L 769.81 592.64 C 769.81 622.78 750.63 631.28 741.05 631.77 L 300.44 631.77 C 278.64 621.33 273.19 601.33 273.19 592.64 L 247.45 385.40 C 247.45 345.98 282.78 337.10 300.44 337.58 L 500.31 337.58 C 512.92 339.03 540.58 333.52 550.27 299.90 C 559.96 266.28 583.58 258.84 594.18 259.32 L 741.05 259.32 Z" fill="#ffffff" fill-rule="nonzero" node-id="69" stroke="#a3a3a3" stroke-linecap="butt" stroke-width="5.01963" target-height="372.92902" target-width="545.073" target-x="247.452" target-y="258.838"></path><path d="M 820.55 683.53 L 707.58 585.30 L 729.88 557.50 L 844.17 660.20 C 850.63 682.43 831.11 685.02 820.55 683.53 Z" fill="#a3a3a3" fill-rule="nonzero" node-id="71" stroke="none" target-height="127.52002" target-width="143.04907" target-x="707.578" target-y="557.496"></path><path d="M 688.20 579.38 L 720.47 541.87 L 737.14 556.21 L 704.87 593.72 Z" fill="#a3a3a3" fill-rule="nonzero" group-id="1" node-id="75" stroke="#a3a3a3" stroke-linecap="butt" stroke-width="1.8325799" target-height="51.84961" target-width="48.9422" target-x="688.19635" target-y="541.8692"></path><path d="M 622.76 380.71 C 682.71 380.71 731.31 429.31 731.31 489.26 C 731.31 549.22 682.71 597.82 622.76 597.82 C 562.80 597.82 514.20 549.22 514.20 489.26 C 514.20 429.31 562.80 380.71 622.76 380.71 Z" fill="none" node-id="78" stroke="#a3a3a3" stroke-linecap="butt" stroke-width="24.7864" target-height="217.11499" target-width="217.11407" target-x="514.199" target-y="380.708"></path><path d="M 624.47 434.00 C 634.35 434.00 642.40 436.58 648.48 442.05 C 654.56 447.37 657.60 454.67 657.60 463.94 C 657.60 471.54 655.63 477.77 651.98 482.63 C 650.61 484.15 646.20 488.25 638.91 494.63 C 636.17 496.92 634.20 499.50 632.83 502.23 C 631.31 505.27 630.55 508.46 630.55 512.11 L 630.55 514.24 L 613.08 514.24 L 613.08 512.11 C 613.08 506.34 613.99 501.32 616.11 497.22 C 618.09 493.12 624.02 486.73 633.89 477.92 L 635.72 475.79 C 638.45 472.45 639.82 468.80 639.82 465.00 C 639.82 459.99 638.30 456.04 635.57 453.15 C 632.68 450.26 628.58 448.89 623.41 448.89 C 616.72 448.89 612.01 450.87 609.12 455.12 C 606.54 458.62 605.32 463.63 605.32 470.02 L 588.00 470.02 C 588.00 458.77 591.19 449.96 597.88 443.57 C 604.41 437.19 613.23 434.00 624.47 434.00 Z M 621.74 521.69 C 625.08 521.69 627.97 522.75 630.25 524.88 C 632.38 527.00 633.59 529.74 633.59 533.08 C 633.59 536.43 632.38 539.31 630.10 541.44 C 627.82 543.57 625.08 544.63 621.74 544.63 C 618.39 544.63 615.66 543.42 613.38 541.29 C 611.10 539.16 610.03 536.43 610.03 533.08 C 610.03 529.74 611.10 527.00 613.38 524.88 C 615.66 522.75 618.39 521.69 621.74 521.69 Z" fill="#a3a3a3" fill-rule="nonzero" node-id="80" stroke="none" target-height="110.632996" target-width="69.60101" target-x="588" target-y="434"></path></g></svg>